<svg viewBox="0 0 48 48" fill="none" xmlns="http://www.w3.org/2000/svg">
  <defs>
    <linearGradient id="faviconGradient" x1="0" y1="0" x2="48" y2="48">
      <stop offset="0%" stop-color="#818cf8"/>
      <stop offset="50%" stop-color="#6366f1"/>
      <stop offset="100%" stop-color="#4f46e5"/>
    </linearGradient>
    <linearGradient id="faviconGradient2" x1="0" y1="0" x2="48" y2="48">
      <stop offset="0%" stop-color="rgba(255, 255, 255, 0.95)"/>
      <stop offset="100%" stop-color="rgba(255, 255, 255, 0.85)"/>
    </linearGradient>
  </defs>
  <!-- Background with rounded corners -->
  <rect width="48" height="48" rx="12" fill="url(#faviconGradient)"/>
  <!-- Cloud shape - even larger -->
  <path d="M24 12C18.5 12 14 16.5 14 22C14 22.5 14 23 14.1 23.5C12.3 24.2 11 25.8 11 27.5C11 29.7 12.8 31.5 15 31.5H33C35.2 31.5 37 29.7 37 27.5C37 25.8 35.7 24.2 33.9 23.5C34 23 34 22.5 34 22C34 16.5 29.5 12 24 12Z" fill="url(#faviconGradient2)"/>
  <!-- Box/Storage icon - even larger -->
  <rect x="16" y="16" width="16" height="16" rx="2.5" fill="#4f46e5" opacity="0.95"/>
  <rect x="20" y="20" width="8" height="8" rx="1.5" fill="white" opacity="0.9"/>
  <!-- Decorative lines - thicker -->
  <line x1="16" y1="16" x2="16" y2="32" stroke="white" stroke-width="2.5" opacity="0.8"/>
  <line x1="32" y1="16" x2="32" y2="32" stroke="white" stroke-width="2.5" opacity="0.8"/>
  <line x1="16" y1="16" x2="32" y2="16" stroke="white" stroke-width="2.5" opacity="0.8"/>
  <!-- Additional detail lines -->
  <line x1="16" y1="24" x2="32" y2="24" stroke="white" stroke-width="2" opacity="0.6"/>
  <line x1="24" y1="16" x2="24" y2="32" stroke="white" stroke-width="2" opacity="0.6"/>
</svg>

